{"scene":0,"asset":{"generator":"ImageToStl.com","version":"2.0"},"scenes":[{"name":"Scene","nodes":[0]}],"nodes":[{"name":"Node0","children":[1]},{"name":"Node1","mesh":0}],"materials":[{"name":"MatI_Ride_FengHuang_01a","pbrMetallicRoughness":{"baseColorFactor":[0.8,0.8,0.8,1.0],"metallicFactor":0.5,"roughnessFactor":0.64},"emissiveFactor":[0.0,0.0,0.0],"doubleSided":true}],"meshes":[{"name":"Mesh0","primitives":[{"indices":2,"material":0,"attributes":{"POSITION":0,"NORMAL":1}},{"indices":3,"material":0,"attributes":{"POSITION":0,"NORMAL":1}}]}],"accessors":[{"bufferView":0,"componentType":5126,"count":3471,"type":"VEC3","min":[-71.76552,-24.073324,-41.65935],"max":[16.996052,23.95018,59.897583]},{"bufferView":1,"componentType":5126,"count":3471,"type":"VEC3"},{"bufferView":2,"componentType":5123,"count":4191,"type":"SCALAR"},{"bufferView":3,"componentType":5123,"count":7962,"type":"SCALAR"}],"bufferViews":[{"target":34962,"buffer":0,"byteLength":41652,"byteOffset":0},{"target":34962,"buffer":0,"byteLength":41652,"byteOffset":41652},{"target":34963,"buffer":0,"byteLength":8382,"byteOffset":83304},{"target":34963,"buffer":0,"byteLength":15924,"byteOffset":91688}],"buffers":[{"byteLength":107612,"uri":"data:application/octet-stream;base64,"}]}